PathFileType	4	(X/Y/Z)	/Users/niels/Desktop/University/Third Semester/Perception and Action/Exam/Gymnastics Motion Tracking/Code for Gym Tracking/Analyzed Data/Webcam_Backflip/id2_4_pure_Sports2D/id2_4_pure_Sports2D_px_person00.trc
DataRate	CameraRate	NumFrames	NumMarkers	Units	OrigDataRate	OrigDataStartFrame	OrigNumFrames
29.87551867219917	29.87551867219917	11	22	m	29.87551867219917	0	241
Frame#	Time	Hip			RHip			RKnee			RAnkle			RBigToe			RSmallToe			RHeel			LHip			LKnee			LAnkle			LBigToe			LSmallToe			LHeel			Neck			Head			Nose			RShoulder			RElbow			RWrist			LShoulder			LElbow			LWrist		
		X1	Y1	Z1	X2	Y2	Z2	X3	Y3	Z3	X4	Y4	Z4	X5	Y5	Z5	X6	Y6	Z6	X7	Y7	Z7	X8	Y8	Z8	X9	Y9	Z9	X10	Y10	Z10	X11	Y11	Z11	X12	Y12	Z12	X13	Y13	Z13	X14	Y14	Z14	X15	Y15	Z15	X16	Y16	Z16	X17	Y17	Z17	X18	Y18	Z18	X19	Y19	Z19	X20	Y20	Z20	X21	Y21	Z21	X22	Y22	Z22
0	0.0	0.9598973743194851	-0.5782121447873962	0.0	0.9598907183707723	-0.5782133426584785	0.0	0.9700670274003946	-0.6881654409216212	0.0	0.9476721856688929	-0.8062582949419241	0.0	0.9721050961529072	-0.8225524310947283	0.0	0.9619240442906781	-0.8286607826451637	0.0	0.9395312875292621	-0.8245822701147131	0.0	0.9639770553294336	-0.5761712910416914	0.0	0.9700733299557899	-0.6881703698668905	0.0	0.9497164933625384	-0.8001551037903276	0.0	0.9822809323315009	-0.818482953262967	0.0	0.9782122243542944	-0.8164502368150904	0.0	0.9375101597092	-0.8123746627686098	0.0	0.9619235154878728	-0.41532325336385856	0.0	0.984323597961447	-0.33794492333422826	0.0	0.9863651146940827	-0.3786741004712233	0.0	0.9537847387585443	-0.41736618255790664	0.0	0.9598960196095323	-0.32980159086733846	0.0	0.9700749252643559	-0.2626170517224658	0.0	0.963973074856823	-0.41939458617205394	0.0	0.9700770244698833	-0.33590584778597626	0.0	0.9741485918583731	-0.2707576583985583	0.0
1	0.03347222222222222	0.959817045400212	-0.5783995286296827	0.0	0.9603264152033677	-0.5791230014297137	0.0	0.9692122654957047	-0.6895196935141563	0.0	0.9469587475628313	-0.8070270703805672	0.0	0.9723457989921473	-0.8233302847461679	0.0	0.9620230939515424	-0.829204811752908	0.0	0.9391312856766557	-0.8257009488500356	0.0	0.9638504643627306	-0.5771831602738032	0.0	0.9699584224731868	-0.6895009393367126	0.0	0.9499569652798872	-0.8005169642878512	0.0	0.9834653559272941	-0.8193841148272001	0.0	0.9793790789229204	-0.8162310254223194	0.0	0.9374281489659348	-0.8136018475242637	0.0	0.962238722489619	-0.41545062943486727	0.0	0.9864174145197425	-0.33886172386465935	0.0	0.9871336603538968	-0.38080448064484906	0.0	0.9535144851261912	-0.4183462683167197	0.0	0.9603797326150108	-0.3306511150574262	0.0	0.9714669257055001	-0.26379890326308497	0.0	0.9631726509731401	-0.42018438327584295	0.0	0.97087240655009	-0.33761902185237813	0.0	0.9751519320332118	-0.27156341386494687	0.0
2	0.06694444444444445	0.9596274135148998	-0.5780629656774172	0.0	0.9605415098303535	-0.5793241633930425	0.0	0.968604515307588	-0.6903332210243867	0.0	0.9462544276201872	-0.8074867415147967	0.0	0.972490852905101	-0.8238787151444192	0.0	0.9620100401863931	-0.8295556160759837	0.0	0.938608730936822	-0.826356239711392	0.0	0.9637727676330275	-0.5775102521542121	0.0	0.9699328704075026	-0.6902556377753855	0.0	0.950220361786524	-0.800560423050725	0.0	0.9845396481589452	-0.8196429665909309	0.0	0.9805274020103832	-0.8157406630853966	0.0	0.9374620851069219	-0.8143576526727623	0.0	0.9626149433584911	-0.41516661020908385	0.0	0.988437557361334	-0.339115309784922	0.0	0.9879131313674918	-0.38217704982626866	0.0	0.9532643665873201	-0.4187783455437262	0.0	0.9609747064629913	-0.3310701534140926	0.0	0.9728885037244598	-0.2646285797392717	0.0	0.9626332234536151	-0.42049466169556327	0.0	0.971654986623038	-0.3387041727923196	0.0	0.9762873040765289	-0.2720268223549268	0.0
3	0.10041666666666667	0.9592477629284425	-0.5767944885204233	0.0	0.9604026263963491	-0.578333239369	0.0	0.9684315130140105	-0.6901772982599813	0.0	0.9455743191629361	-0.807324185799398	0.0	0.9725737493854505	-0.8239537243730872	0.0	0.9618976890979468	-0.8294693531075457	0.0	0.9378901805166708	-0.8262003437549144	0.0	0.9637332383061118	-0.5766756147775581	0.0	0.9701312886690511	-0.6899742377535476	0.0	0.9505822995473763	-0.7999277635870553	0.0	0.9855215880359773	-0.8188387570655334	0.0	0.9817365218058668	-0.8146497998067992	0.0	0.9376876645394583	-0.8142301718813584	0.0	0.9630949023535399	-0.4141612606758394	0.0	0.990453493264867	-0.3383526245110142	0.0	0.9888043547070346	-0.3823005457501937	0.0	0.9530925212449335	-0.41821503405819993	0.0	0.9617320443581863	-0.3306966460141101	0.0	0.974324038046273	-0.2647757217710615	0.0	0.9624519453391794	-0.41996055335576266	0.0	0.9724223672886604	-0.3387091921753212	0.0	0.9775978425920824	-0.2718001384577253	0.0
4	0.1338888888888889	0.9586380979729099	-0.5743955822740544	0.0	0.9598769495921686	-0.5759992550008325	0.0	0.9687980163889341	-0.6888307863474864	0.0	0.9449483393781336	-0.8062703395468098	0.0	0.972707995168392	-0.8233451325157692	0.0	0.9617932931900663	-0.8286955439860798	0.0	0.9369295133154977	-0.825017507637522	0.0	0.96362951538268	-0.5745070494078769	0.0	0.9707122762173306	-0.6884236582453502	0.0	0.9511620486234851	-0.7982684846776009	0.0	0.9865689533940298	-0.8168105391588122	0.0	0.983184963275146	-0.8126156869015123	0.0	0.9381229725757562	-0.8128796456722802	0.0	0.9636911827786285	-0.41227100578735937	0.0	0.9926679957951661	-0.3366260645964538	0.0	0.9899395763149788	-0.38109323432735104	0.0	0.9530939919685643	-0.41645496969243767	0.0	0.9626117241235794	-0.3293175005241782	0.0	0.9757609986667002	-0.26398608970716214	0.0	0.9625541971080767	-0.41842253411827435	0.0	0.9731887656223912	-0.33745731480332064	0.0	0.9790205110888341	-0.2705469116427658	0.0
5	0.16736111111111113	0.9577869761860273	-0.570944977137769	0.0	0.9590210220102624	-0.5724716148916009	0.0	0.9697223943003259	-0.686302839819239	0.0	0.9444260968833675	-0.8042051185071598	0.0	0.9729866745936926	-0.8219156575221881	0.0	0.9618220193021052	-0.8270652852546908	0.0	0.9357332457242892	-0.8227338181674367	0.0	0.9633096986465951	-0.5711485124265421	0.0	0.9717378666795246	-0.685643854495573	0.0	0.9520207934116701	-0.7953978002046221	0.0	0.9878407676309805	-0.8136016233363279	0.0	0.9849742796550003	-0.8094575697211877	0.0	0.938697014486921	-0.8101347109677308	0.0	0.9643732910537269	-0.40949302009978533	0.0	0.995313878597032	-0.3342466851471803	0.0	0.9913798408326215	-0.3788177050897123	0.0	0.9533467231778687	-0.4136156753079093	0.0	0.9635169933378832	-0.32695722046053804	0.0	0.9772264554630214	-0.2621761312432889	0.0	0.9628063718589375	-0.4159421562759644	0.0	0.9739555134951022	-0.3350792674256262	0.0	0.9804447091899442	-0.26810085227327235	0.0
6	0.20083333333333334	0.956730152143663	-0.5667773587705636	0.0	0.9579542191890864	-0.5681125698932236	0.0	0.9711224901350024	-0.6828067531959116	0.0	0.9440507856916104	-0.8012354969947713	0.0	0.9734490997768244	-0.8196609191179938	0.0	0.9620851846191507	-0.8245740365972947	0.0	0.9344114009119926	-0.819456416630168	0.0	0.9626661889506896	-0.5669924500415578	0.0	0.973092040862173	-0.6819320509083338	0.0	0.953050466293069	-0.7914334523939963	0.0	0.9893197190880321	-0.8094685553907268	0.0	0.9869163616936477	-0.805331097013711	0.0	0.9392010495969533	-0.8061375183711861	0.0	0.9650724855775042	-0.4060024005926731	0.0	0.9984808552043507	-0.331567635038488	0.0	0.993082112513091	-0.37587711243216015	0.0	0.9538489322077365	-0.41006357349016503	0.0	0.9643704675444063	-0.3239121017154399	0.0	0.9787308228771715	-0.2595183396627687	0.0	0.9630963994945908	-0.41276294730283253	0.0	0.9747101027049236	-0.3319774256037096	0.0	0.9817782750576973	-0.2646943990587712	0.0
7	0.23430555555555554	0.9555959777628874	-0.5623418185781817	0.0	0.9568066575670526	-0.5633878941937687	0.0	0.9728064587965645	-0.6787187232303125	0.0	0.9438281858518908	-0.7976498331011096	0.0	0.9740588412039534	-0.816737095567148	0.0	0.9626135268437283	-0.8213979381151615	0.0	0.9331264824063592	-0.8154590733064082	0.0	0.9617369297565745	-0.5625169176017663	0.0	0.9745464344190764	-0.6777470097791005	0.0	0.9539865383468928	-0.7868024368854066	0.0	0.9907977855767592	-0.8048594248367856	0.0	0.9885588277490943	-0.8006865255716739	0.0	0.93934381974646	-0.8013448369997165	0.0	0.9657378738070462	-0.4021501604298619	0.0	1.0020062134506407	-0.3288566511346777	0.0	0.9949239029143753	-0.37267047499989536	0.0	0.9545127675110731	-0.40626655592035127	0.0	0.9651551252144123	-0.32065159899035806	0.0	0.9802198951907901	-0.25639667348455225	0.0	0.96335648329158	-0.40924745990692	0.0	0.9754587830754959	-0.328649066487825	0.0	0.9829835373413668	-0.26090409608708004	0.0
8	0.2677777777777778	0.9545822297017197	-0.5580962405516187	0.0	0.9556990390120864	-0.558771743711144	0.0	0.974515554452317	-0.6745314443629375	0.0	0.9437357714740292	-0.7938484844885816	0.0	0.9746975805114283	-0.8134368662416983	0.0	0.9633301907086015	-0.8178706095463637	0.0	0.9320178164087505	-0.8111689967091938	0.0	0.9607385540564202	-0.5581753742724654	0.0	0.9758613911892529	-0.6735790725937972	0.0	0.9545434759197728	-0.7821637941610816	0.0	0.992019042955206	-0.8003198666455645	0.0	0.9894683024697937	-0.7961010308086158	0.0	0.9389419220416307	-0.7964283197527157	0.0	0.9663691636262294	-0.3984253469343487	0.0	1.005553821639554	-0.32631998227565784	0.0	0.9967370876485879	-0.36959435396172297	0.0	0.9552207302093507	-0.4026930808838172	0.0	0.9658941163278857	-0.3176540293422661	0.0	0.9815961492789105	-0.25328038667351704	0.0	0.9635767621296243	-0.40581431099081106	0.0	0.9762118890689674	-0.3254943424662971	0.0	0.9840640287712499	-0.2573298458318912	0.0
9	0.30125	0.9538609788462735	-0.5544914900062311	0.0	0.9547489760994755	-0.5546906278582735	0.0	0.9760037724499596	-0.6707564809013837	0.0	0.9437435948577736	-0.7903139092792607	0.0	0.9752437473523963	-0.810189165877052	0.0	0.9640796357025637	-0.8144606936438016	0.0	0.9311795169749397	-0.8071380646676263	0.0	0.9599620914416548	-0.5543883151656614	0.0	0.976837825932126	-0.6698699297260827	0.0	0.9545355414606408	-0.7782318814919645	0.0	0.9927929701835194	-0.7964142269993596	0.0	0.9894627578122434	-0.7921759328198776	0.0	0.9379934769187644	-0.7921204724347523	0.0	0.966972607788827	-0.39536249131129525	0.0	1.0087723802292594	-0.32419619357553203	0.0	0.9983561431430085	-0.36705631976437764	0.0	0.9558922361118274	-0.39978536826471134	0.0	0.9666293804651059	-0.3152911986650324	0.0	0.9827824546018732	-0.2505955445670529	0.0	0.9638086939562063	-0.4028918334200557	0.0	0.9769364288381073	-0.3227756351312781	0.0	0.985036875889091	-0.2543537584812842	0.0
10	0.33472222222222225	0.9535106710787931	-0.5519256049261729	0.0	0.9540476614790272	-0.551522700915064	0.0	0.9770810598048162	-0.6678407837728193	0.0	0.9438023939517459	-0.7875332349022176	0.0	0.9756577364325479	-0.8075200612885207	0.0	0.964719967768023	-0.8117022750390155	0.0	0.9306529956105265	-0.8039154450228452	0.0	0.9596250006819117	-0.5515170656366585	0.0	0.9773807199021095	-0.6670232977191654	0.0	0.9539722464116724	-0.7755476318602602	0.0	0.9930340749438176	-0.7936603591571519	0.0	0.9886581885187578	-0.7894517299580232	0.0	0.9366684693881518	-0.7890161636313989	0.0	0.9675183119740136	-0.3933774240050783	0.0	1.0114003905908828	-0.3227441622916208	0.0	0.9996907001574185	-0.3654006908449465	0.0	0.956498918785103	-0.3979155253958265	0.0	0.9674025284015814	-0.3137913960176751	0.0	0.9837666075490809	-0.24867767030123025	0.0	0.9641441408806554	-0.4008517678526808	0.0	0.9775677865530452	-0.3206898888569159	0.0	0.985931065199648	-0.25218022807049406	0.0
